ground reactions
version=1
nRows=60
nColumns=19
inDegrees=no
endheader
time	ground_force_l_vx	ground_force_l_vy	ground_force_l_vz	ground_force_l_px	ground_force_l_py	ground_force_l_pz	ground_torque_l_x	ground_torque_l_y	ground_torque_l_z	ground_force_r_vx	ground_force_r_vy	ground_force_r_vz	ground_force_r_px	ground_force_r_py	ground_force_r_pz	ground_torque_r_x	ground_torque_r_y	ground_torque_r_z
0.008333	0.000209	0.001558	-0.000007	-0.000027	-0.000000	0.000015	0.000000	-0.000017	0.000000	19.255489	233.034553	-13.134820	0.821806	0.000000	-0.407667	0.000000	1.147321	0.000000
0.009375	0.000250	0.001853	-0.000009	-0.000021	-0.000000	0.000011	0.000000	-0.000020	0.000000	21.608023	261.150960	-14.709258	0.820652	0.000000	-0.408023	0.000000	1.277163	0.000000
0.010417	0.000298	0.002200	-0.000012	-0.000011	-0.000000	0.000005	0.000000	-0.000024	0.000000	24.020115	289.827543	-16.310610	0.819514	0.000000	-0.408373	0.000000	1.405899	0.000000
0.011458	0.000356	0.002609	-0.000015	0.000004	0.000000	-0.000003	0.000000	-0.000029	0.000000	26.441230	318.416831	-17.901404	0.818389	0.000000	-0.408715	0.000000	1.529582	0.000000
0.012500	0.000425	0.003092	-0.000020	0.000022	0.000000	-0.000013	0.000000	-0.000034	0.000000	28.833959	346.436831	-19.453757	0.817277	0.000000	-0.409047	0.000000	1.645338	0.000000
0.013542	0.000506	0.003661	-0.000025	0.000042	0.000000	-0.000024	0.000000	-0.000041	0.000000	31.171112	373.534907	-20.947300	0.816174	0.000000	-0.409366	0.000000	1.751160	0.000000
0.014583	0.000601	0.004334	-0.000032	0.000063	0.000000	-0.000036	0.000000	-0.000049	0.000000	33.433512	399.460296	-22.367613	0.815075	0.000000	-0.409671	0.000000	1.845738	0.000000
0.015625	0.000715	0.005130	-0.000039	0.000083	0.000000	-0.000047	0.000000	-0.000058	0.000000	35.608282	424.042833	-23.704997	0.813980	0.000000	-0.409960	0.000000	1.928332	0.000000
0.016667	0.000849	0.006074	-0.000049	0.000098	0.000000	-0.000055	0.000000	-0.000069	0.000000	37.687503	447.176202	-24.953511	0.812883	0.000000	-0.410232	0.000000	1.998654	0.000000
0.017708	0.001007	0.007193	-0.000060	0.000105	0.000000	-0.000059	0.000000	-0.000082	0.000000	39.667138	468.804524	-26.110199	0.811785	0.000000	-0.410487	0.000000	2.056785	0.000000
0.018750	0.001195	0.008520	-0.000073	0.000102	0.000000	-0.000056	0.000000	-0.000098	0.000000	41.546170	488.911513	-27.174458	0.810683	0.000000	-0.410724	0.000000	2.103091	0.000000
0.019792	0.001417	0.010096	-0.000088	0.000085	0.000000	-0.000046	0.000000	-0.000116	0.000000	43.325888	507.511595	-28.147516	0.809576	0.000000	-0.410943	0.000000	2.138158	0.000000
0.020833	0.001680	0.011967	-0.000106	0.000053	0.000000	-0.000028	0.000000	-0.000138	0.000000	45.009321	524.642620	-29.032006	0.808466	0.000000	-0.411144	0.000000	2.162733	0.000000
0.021875	0.001992	0.014186	-0.000128	0.000006	0.000000	-0.000001	0.000000	-0.000164	0.000000	46.600755	540.359844	-29.831603	0.807352	0.000000	-0.411326	0.000000	2.177677	0.000000
0.022917	0.002362	0.016818	-0.000153	-0.000055	-0.000000	0.000033	0.000000	-0.000195	0.000000	48.105357	554.730986	-30.550732	0.806235	0.000000	-0.411490	0.000000	2.183923	0.000000
0.023958	0.002800	0.019935	-0.000183	-0.000126	-0.000000	0.000073	0.000000	-0.000232	0.000000	49.528854	567.832171	-31.194316	0.805116	0.000000	-0.411637	0.000000	2.182438	0.000000
0.025000	0.003320	0.023623	-0.000220	-0.000202	-0.000000	0.000116	0.000000	-0.000275	0.000000	50.877286	579.744630	-31.767577	0.803996	0.000000	-0.411766	0.000000	2.174199	0.000000
0.026042	0.003936	0.027981	-0.000263	-0.000275	-0.000000	0.000156	0.000000	-0.000326	0.000000	52.156802	590.552041	-32.275869	0.802875	0.000000	-0.411879	0.000000	2.160163	0.000000
0.027083	0.004665	0.033123	-0.000316	-0.000336	-0.000000	0.000189	0.000000	-0.000386	0.000000	53.373510	600.338415	-32.724548	0.801755	0.000000	-0.411975	0.000000	2.141255	0.000000
0.028125	0.005528	0.039183	-0.000380	-0.000372	-0.000000	0.000208	0.000000	-0.000457	0.000000	54.533352	609.186454	-33.118862	0.800635	0.000000	-0.412055	0.000000	2.118349	0.000000
0.029167	0.006546	0.046313	-0.000457	-0.000374	-0.000000	0.000207	0.000000	-0.000541	0.000000	55.642018	617.176289	-33.463874	0.799515	0.000000	-0.412121	0.000000	2.092258	0.000000
0.030208	0.007748	0.054694	-0.000551	-0.000331	-0.000000	0.000181	0.000000	-0.000640	0.000000	56.704886	624.384556	-33.764399	0.798395	0.000000	-0.412173	0.000000	2.063727	0.000000
0.031250	0.009164	0.064532	-0.000664	-0.000236	-0.000000	0.000125	0.000000	-0.000757	0.000000	57.726981	630.883742	-34.024964	0.797274	0.000000	-0.412212	0.000000	2.033429	0.000000
0.032292	0.010830	0.076071	-0.000801	-0.000085	-0.000000	0.000039	0.000000	-0.000895	0.000000	58.712948	636.741761	-34.249777	0.796153	0.000000	-0.412239	0.000000	2.001962	0.000000
0.033333	0.012787	0.089591	-0.000965	0.000118	0.000000	-0.000076	0.000000	-0.001057	0.000000	59.667047	642.021707	-34.442709	0.795030	0.000000	-0.412255	0.000000	1.969849	0.000000
0.034375	0.015082	0.105423	-0.001162	0.000363	0.000000	-0.000214	0.000000	-0.001247	0.000000	60.593148	646.781761	-34.607294	0.793904	0.000000	-0.412262	0.000000	1.937538	0.000000
0.035417	0.017772	0.123951	-0.001398	0.000634	0.000000	-0.000365	0.000000	-0.001471	0.000000	61.494749	651.075211	-34.746723	0.792776	0.000000	-0.412260	0.000000	1.905406	0.000000
0.036458	0.020921	0.145621	-0.001679	0.000904	0.000000	-0.000514	0.000000	-0.001734	0.000000	62.374984	654.950560	-34.863856	0.791644	0.000000	-0.412252	0.000000	1.873762	0.000000
0.037500	0.024605	0.170955	-0.002012	0.001140	0.000000	-0.000643	0.000000	-0.002042	0.000000	63.236643	658.451706	-34.961235	0.790509	0.000000	-0.412238	0.000000	1.842853	0.000000
0.038542	0.028910	0.200558	-0.002409	0.001304	0.000000	-0.000730	0.000000	-0.002403	0.000000	64.082201	661.618164	-35.041097	0.789370	0.000000	-0.412219	0.000000	1.812866	0.000000
0.039583	0.033938	0.235130	-0.002878	0.001357	0.000000	-0.000753	0.000000	-0.002827	0.000000	64.913834	664.485325	-35.105394	0.788227	0.000000	-0.412198	0.000000	1.783935	0.000000
0.040625	0.039807	0.275478	-0.003433	0.001261	0.000000	-0.000692	0.000000	-0.003322	0.000000	65.733449	667.084738	-35.155813	0.787081	0.000000	-0.412175	0.000000	1.756148	0.000000
0.041667	0.046656	0.322532	-0.004090	0.000984	0.000000	-0.000530	0.000000	-0.003901	0.000000	66.542707	669.444395	-35.193795	0.785931	0.000000	-0.412152	0.000000	1.729549	0.000000
0.042708	0.054641	0.377357	-0.004867	0.000511	0.000000	-0.000258	0.000000	-0.004577	0.000000	67.343047	671.589023	-35.220557	0.784779	0.000000	-0.412129	0.000000	1.704148	0.000000
0.043750	0.063946	0.441168	-0.005787	-0.000156	-0.000000	0.000121	0.000000	-0.005366	0.000000	68.135711	673.540371	-35.237110	0.783626	0.000000	-0.412108	0.000000	1.679923	0.000000
0.044792	0.074782	0.515346	-0.006876	-0.000993	-0.000000	0.000593	0.000000	-0.006286	0.000000	68.921763	675.317490	-35.244279	0.782472	0.000000	-0.412091	0.000000	1.656827	0.000000
0.045833	0.087389	0.601459	-0.008167	-0.001944	-0.000000	0.001125	0.000000	-0.007356	0.000000	69.702115	676.936998	-35.242723	0.781318	0.000000	-0.412077	0.000000	1.634792	0.000000
0.046875	0.102041	0.701274	-0.009698	-0.002928	-0.000000	0.001670	0.000000	-0.008601	0.000000	70.477539	678.413333	-35.232946	0.780166	0.000000	-0.412069	0.000000	1.613734	0.000000
0.047917	0.119051	0.816784	-0.011516	-0.003834	-0.000000	0.002168	0.000000	-0.010047	0.000000	71.248690	679.758989	-35.215318	0.779016	0.000000	-0.412066	0.000000	1.593558	0.000000
0.048958	0.138770	0.950228	-0.013674	-0.004532	-0.000000	0.002543	0.000000	-0.011725	0.000000	72.016123	680.984733	-35.190085	0.777870	0.000000	-0.412071	0.000000	1.574162	0.000000
0.050000	0.161595	1.104116	-0.016235	-0.004879	-0.000000	0.002717	0.000000	-0.013669	0.000000	72.780302	682.099813	-35.157383	0.776729	0.000000	-0.412082	0.000000	1.555438	0.000000
0.051042	0.187971	1.281258	-0.019274	-0.004737	-0.000000	0.002612	0.000000	-0.015918	0.000000	73.541619	683.112134	-35.117250	0.775593	0.000000	-0.412101	0.000000	1.537279	0.000000
0.052083	0.218395	1.484795	-0.022875	-0.003986	-0.000000	0.002165	0.000000	-0.018518	0.000000	74.300406	684.028434	-35.069633	0.774464	0.000000	-0.412129	0.000000	1.519579	0.000000
0.053125	0.253422	1.718231	-0.027137	-0.002548	-0.000000	0.001334	0.000000	-0.021517	0.000000	75.056942	684.854433	-35.014397	0.773343	0.000000	-0.412166	0.000000	1.502236	0.000000
0.054167	0.293667	1.985473	-0.032171	-0.000407	-0.000000	0.000112	0.000000	-0.024974	0.000000	75.811468	685.594967	-34.951337	0.772230	0.000000	-0.412211	0.000000	1.485152	0.000000
0.055208	0.339816	2.290865	-0.038108	0.002373	0.000000	-0.001459	0.000000	-0.028950	0.000000	76.564192	686.254112	-34.880179	0.771126	0.000000	-0.412266	0.000000	1.468239	0.000000
0.056250	0.392623	2.639230	-0.045092	0.005631	0.000000	-0.003286	0.000000	-0.033518	0.000000	77.315301	686.835292	-34.800588	0.770033	0.000000	-0.412330	0.000000	1.451416	0.000000
0.057292	0.452927	3.035907	-0.053291	0.009103	0.000000	-0.005218	0.000000	-0.038755	0.000000	78.064965	687.341372	-34.712176	0.768949	0.000000	-0.412404	0.000000	1.434612	0.000000
0.058333	0.521647	3.486783	-0.062894	0.012424	0.000000	-0.007048	0.000000	-0.044750	0.000000	78.813345	687.774746	-34.614505	0.767877	0.000000	-0.412487	0.000000	1.417766	0.000000
0.059375	0.599799	3.998322	-0.074118	0.015143	0.000000	-0.008522	0.000000	-0.051599	0.000000	79.560601	688.137401	-34.507092	0.766815	0.000000	-0.412578	0.000000	1.400826	0.000000
0.060417	0.688491	4.577583	-0.087207	0.016759	0.000000	-0.009359	0.000000	-0.059410	0.000000	80.306890	688.430989	-34.389415	0.765764	0.000000	-0.412679	0.000000	1.383750	0.000000
0.061458	0.788937	5.232225	-0.102443	0.016760	0.000000	-0.009278	0.000000	-0.068299	0.000000	81.052380	688.656872	-34.260917	0.764725	0.000000	-0.412788	0.000000	1.366507	0.000000
0.062500	0.902453	5.970490	-0.120146	0.014691	0.000000	-0.008027	0.000000	-0.078393	0.000000	81.797243	688.816172	-34.121015	0.763696	0.000000	-0.412905	0.000000	1.349075	0.000000
0.063542	1.030459	6.801172	-0.140681	0.010223	0.000000	-0.005432	0.000000	-0.089830	0.000000	82.541666	688.909807	-33.969100	0.762677	0.000000	-0.413030	0.000000	1.331441	0.000000
0.064583	1.174476	7.733553	-0.164466	0.003231	0.000000	-0.001435	0.000000	-0.102759	0.000000	83.285848	688.938520	-33.804548	0.761668	0.000000	-0.413161	0.000000	1.313598	0.000000
0.065625	1.336116	8.777321	-0.191974	-0.006128	-0.000000	0.003865	0.000000	-0.117338	0.000000	84.030002	688.902905	-33.626724	0.760668	0.000000	-0.413299	0.000000	1.295551	0.000000
0.066667	1.517067	9.942451	-0.223745	-0.017347	-0.000000	0.010169	0.000000	-0.133736	0.000000	84.774353	688.803426	-33.434988	0.759677	0.000000	-0.413443	0.000000	1.277307	0.000000
0.067708	1.719071	11.239055	-0.260385	-0.029524	-0.000000	0.016958	0.000000	-0.152127	0.000000	85.519143	688.640433	-33.228707	0.758693	0.000000	-0.413592	0.000000	1.258882	0.000000
0.068750	1.943895	12.677214	-0.302574	-0.041346	-0.000000	0.023487	0.000000	-0.172696	0.000000	86.264621	688.414168	-33.007258	0.757715	0.000000	-0.413745	0.000000	1.240296	0.000000
0.069792	2.193293	14.266775	-0.351071	-0.051111	-0.000000	0.028797	0.000000	-0.195630	0.000000	87.011048	688.124774	-32.770037	0.756742	0.000000	-0.413902	0.000000	1.221572	0.000000
